<?xml version="1.0" encoding="UTF-8" standalone="no"?>
<!-- Created with Inkscape (http://www.inkscape.org/) -->

<svg
   version="1.1"
   id="svg983"
   xml:space="preserve"
   width="54.420116"
   height="11.354633"
   xmlns:inkscape="http://www.inkscape.org/namespaces/inkscape"
   xmlns:sodipodi="http://sodipodi.sourceforge.net/DTD/sodipodi-0.dtd"
   xmlns="http://www.w3.org/2000/svg"
   xmlns:svg="http://www.w3.org/2000/svg"><defs
     id="defs987" /><sodipodi:namedview
     id="namedview985"
     pagecolor="#ffffff"
     bordercolor="#000000"
     borderopacity="0.25"
     inkscape:showpageshadow="2"
     inkscape:pageopacity="0.0"
     inkscape:pagecheckerboard="0"
     inkscape:deskcolor="#d1d1d1" /><inkscape:clipboard
     style="font-variation-settings:normal;opacity:1;vector-effect:none;fill:#ada094;fill-opacity:1;stroke-width:1.09166674;stroke-linecap:butt;stroke-linejoin:miter;stroke-miterlimit:4;stroke-dasharray:none;stroke-dashoffset:0;stroke-opacity:1;-inkscape-stroke:none;stop-color:#000000;stop-opacity:1"
     min="-34.036341,14.795266"
     max="20.383779,26.1499"
     geom-min="-34.036341,14.795266"
     geom-max="20.383779,26.1499" /><g
     id="g989"
     transform="matrix(1.0916667,0,0,1.0916667,34.242474,-14.795266)"><path
       fill-rule="evenodd"
       clip-rule="evenodd"
       d="m 1.7371372,14.487036 c -0.78439999,-1.245495 -2.6001005,-1.245495 -3.3846005,0 l -1.5728,2.49722 c -0.8389,1.33184 0.1183,3.06588 1.6923,3.06588 h 3.1457005 c 1.574,0 2.5311,-1.73404 1.6923,-3.06588 z m -33.1042882,1.0391 v 8.273969 h 3.485997 v -1.119969 h -1.876 v -7.154 z m 4.113597,1.344 v 6.929969 h 1.596 v -6.929969 z m 0.266,-0.98001 c 0.14933,0.14001 0.32666,0.21001 0.532,0.21001 0.20533,0 0.38267,-0.07 0.532,-0.21001 0.15867,-0.14933 0.238,-0.32199 0.238,-0.51799 0,-0.20533 -0.07933,-0.378 -0.238,-0.518 -0.14933,-0.14 -0.32667,-0.21 -0.532,-0.21 -0.20534,0 -0.38267,0.07 -0.532,0.21 -0.14933,0.14 -0.224,0.31267 -0.224,0.518 0,0.196 0.07467,0.36866 0.224,0.51799 z m 2.38634,0.98001 v 6.929969 h 1.596 v -5.571969 c 0.028,-0.04667 0.06534,-0.098 0.112,-0.154 0.04667,-0.056 0.112,-0.10267 0.196,-0.14 0.084,-0.04667 0.18201,-0.07 0.29401,-0.07 0.14933,0 0.26133,0.02333 0.33599,0.07 0.07467,0.03733 0.13065,0.09333 0.16805,0.168 0.0466,0.07466 0.0746,0.16333 0.084,0.266 0.0093,0.09333 0.014,0.196 0.014,0.308 v 5.123969 h 1.596 v -5.221969 c 0,-0.37334 -0.042,-0.69534 -0.126,-0.966 -0.0747,-0.28 -0.224,-0.49467 -0.4481,-0.644 -0.2239,-0.15867 -0.5599,-0.238 -1.0079,-0.238 -0.29871,0 -0.57404,0.08867 -0.82605,0.266 -0.24266,0.17734 -0.406,0.406 -0.49,0.68599 l -0.14,-0.81199 z m 5.86405,6.803969 c 0.224,0.1494 0.56,0.224 1.008,0.224 0.336,0 0.6206,-0.0886 0.854,-0.266 0.2333,-0.186599 0.3873,-0.410599 0.462,-0.671999 l 0.126,0.839999 h 1.358 v -6.929969 h -1.596 v 5.544 c -0.0187,0.04667 -0.0514,0.098 -0.098,0.154 -0.0467,0.056 -0.112,0.10267 -0.196,0.14 -0.0747,0.03733 -0.1727,0.056 -0.294,0.056 -0.1867,0 -0.322,-0.03734 -0.406,-0.112 -0.084,-0.07467 -0.14,-0.17266 -0.168,-0.294 -0.0187,-0.12133 -0.028,-0.252 -0.028,-0.392 v -5.096 h -1.596 v 5.194 c 0,0.37334 0.0373,0.69533 0.112,0.96597 0.084,0.2707 0.238,0.4854 0.462,0.643999 z m 5.7367,-3.471969 -1.386,3.597969 h 1.568 l 0.868,-2.267969 0.77,2.267969 h 1.5260003 l -1.2740003,-3.597969 1.2740003,-3.332 h -1.4700003 l -0.812,2.128 -0.686,-2.128 h -1.526 z m 19.4733012,3.597969 c 0.28,0.1027 0.5787,0.154 0.896,0.154 0.4013,0 0.7094,-0.0653 0.924,-0.196 0.2240004,-0.14 0.3827004,-0.289299 0.4759999,-0.447999 0.0094,-0.0186 0.0233,-0.042 0.042,-0.07 l 0.056,-0.084 0.084,0.643999 H 10.168837 V 19.642136 H 7.9148372 v 0.924 h 0.6720004 v 1.652 c 0,0.27067 -0.0653,0.47133 -0.196,0.60197 -0.1307004,0.1307 -0.3033004,0.196 -0.5180004,0.196 -0.14,0 -0.266,-0.0186 -0.378,-0.056 -0.1026,-0.0466 -0.1866,-0.126 -0.252,-0.23797 -0.056,-0.12133 -0.084,-0.28933 -0.084,-0.504 v -5.012 c 0,-0.224 0.028,-0.392 0.084,-0.504 0.0654,-0.12134 0.1494,-0.20067 0.252,-0.238 0.112,-0.03734 0.238,-0.056 0.378,-0.056 0.1494,0 0.2753,0.01866 0.378,0.056 0.1027004,0.03733 0.1820004,0.11666 0.2380004,0.238 0.0654,0.112 0.098,0.28 0.098,0.504 v 1.246 h 1.5819994 v -1.162 c 0,-0.48533 -0.1027,-0.86334 -0.3079999,-1.134 -0.196,-0.27067 -0.4713,-0.45734 -0.826,-0.56 -0.3452995,-0.112 -0.7466999,-0.168 -1.2039999,-0.168 -0.4573,0 -0.8586,0.056 -1.204,0.168 -0.3453,0.10266 -0.616,0.28933 -0.812,0.56 -0.1867,0.27066 -0.28,0.64867 -0.28,1.134 v 4.536 c 0,0.60667 0.0887,1.06397 0.266,1.37197 0.1773,0.2987 0.4013,0.499399 0.672,0.601999 z m 4.6680998,-6.929969 v 6.929969 h 1.596 v -6.929969 z m 0.266,-0.98001 c 0.1494,0.14001 0.3267,0.21001 0.532,0.21001 0.2054,0 0.3827,-0.07 0.532,-0.21001 0.1587,-0.14933 0.238,-0.32199 0.238,-0.51799 0,-0.20533 -0.0793,-0.378 -0.238,-0.518 -0.1493,-0.14 -0.3266,-0.21 -0.532,-0.21 -0.2053,0 -0.3826,0.07 -0.532,0.21 -0.1493,0.14 -0.224,0.31267 -0.224,0.518 0,0.196 0.0747,0.36866 0.224,0.51799 z m 4.0804,3.89201 1.26,4.017969 h 1.722 l -1.456,-3.989969 1.47,-2.94 h -1.582 z m -1.694,-4.83 v 8.847969 h 1.596 V 14.952136 Z M 1.2166372,23.611405 c -1.21239999,0.2772 -2.4746005,0.2486 -3.6731005,-0.0832 -1.1986,-0.3319 -2.2958,-0.95659 -3.1929004,-1.81788 -0.8971,-0.86129 -1.5659,-1.93214 -1.9463,-3.11618 -0.3804,-1.18403 -0.4604,-2.44407 -0.2328,-3.66669 l 2.9283004,0.54515 c -0.1373,0.73707 -0.089,1.4967 0.1403,2.21049 0.2293,0.7138 0.6325,1.35938 1.1734,1.87861 0.5408,0.51924 1.2022,0.89585 1.9248,1.0959 0.7225,0.20007 1.48350051,0.21732 2.21440051,0.05021 z"
       fill="#ada094"
       id="path172-6"
       inkscape:highlight-color="#d54242"
       style="display:inline" /></g></svg>
